<svg xmlns="http://www.w3.org/2000/svg" version="1.1" xmlns:xlink="http://www.w3.org/1999/xlink" xmlns:svgjs="http://svgjs.dev/svgjs" width="1000" height="1000" viewBox="0 0 1000 1000"><rect width="1000" height="1000" fill="#ffffff"></rect><g transform="matrix(0.7,0,0,0.7,149.57576356841014,306.1189359529088)"><svg viewBox="0 0 396 219" data-background-color="#f9f9f9" preserveAspectRatio="xMidYMid meet" height="553" width="1000" xmlns="http://www.w3.org/2000/svg" xmlns:xlink="http://www.w3.org/1999/xlink"><defs></defs><g id="tight-bounds" transform="matrix(1,0,0,1,0.23999660987084326,0.1872979238258523)"><svg viewBox="0 0 395.52 218.6254041523483" height="218.6254041523483" width="395.52"><g><svg viewBox="0 0 395.52 218.6254041523483" height="218.6254041523483" width="395.52"><g transform="matrix(1,0,0,1,0,161.65782942817577)"><svg viewBox="0 0 395.52 56.96757472417252" height="56.96757472417252" width="395.52"><g><svg viewBox="0 0 395.52 56.96757472417252" height="56.96757472417252" width="395.52"><g><svg viewBox="0 0 395.52 56.96757472417252" height="56.96757472417252" width="395.52"><g transform="matrix(1,0,0,1,0,0)"><svg width="395.52" viewBox="2.5 -35.45000076293945 249.22999572753906 35.900001525878906" height="56.96757472417252" data-palette-color="#030303"><path d="M2.5-34.95L12.55-35Q12.55-34.95 12.6-34.25L12.6-34.25 9.15-33.95 9.15-1 22.95-1 23.95-9 24.9-8.75 24.15 0 12.55 0 2.5 0.05 2.55-0.65 5.15-1Q5.65-1.05 5.75-1.65L5.75-1.65 5.75-33.3Q5.65-33.9 5.15-33.95L5.15-33.95 2.55-34.2 2.5-34.95ZM30.45-33.95L27.8-34.25 27.85-35 49.25-35 49.2-34.85 49.85-27.8 48.85-27.4 48.05-34 34.45-34 34.45-17.85 46.4-17.85Q46.65-17.8 46.85-17.98 47.05-18.15 47.05-18.45L47.05-18.45 47.25-21.9 48.05-22 48.05-13.45Q48-13.45 47.3-13.4L47.3-13.4 47.1-16.85 34.45-16.85 34.45-1 49.4-1 50.35-9 51.3-8.75 50.55 0 37.85 0 27.8 0.05 27.85-0.65 30.45-1Q30.95-1.05 31.05-1.65L31.05-1.65 31.05-33.3Q30.95-33.9 30.45-33.95L30.45-33.95ZM72.04-33.95L69.39-34.25 69.44-35 76.04-35 87.99-9.65 99.74-35 106.34-35Q106.34-34.9 106.39-34.65 106.44-34.4 106.39-34.25L106.39-34.25 103.74-33.95Q103.24-33.9 103.14-33.3L103.14-33.3 103.14-0.95 106.84-0.75Q106.84-0.7 106.79 0L106.79 0 96.74 0.05 96.79-0.65 99.39-1Q99.89-1.05 99.99-1.6L99.99-1.6 99.99-33.2 88.59-8.55 87.59-6.55 86.44-6.55 73.79-33.25 73.79-1.05 79.49-0.75Q79.49-0.7 79.44 0L79.44 0 69.39 0.05 69.44-0.65 72.04-1Q72.54-1.05 72.64-1.65L72.64-1.65 72.64-33.3Q72.54-33.9 72.04-33.95L72.04-33.95ZM118.39 0L108.34 0.05 108.39-0.65 110.99-1Q111.34-1.05 111.59-1.65L111.59-1.65 122.39-35 125.69-35 137.19-0.95 140.64-0.75Q140.64-0.7 140.59 0L140.59 0 130.59 0.05Q130.59-0.4 130.64-0.65L130.64-0.65 133.24-1Q133.64-1.05 133.64-1.6L133.64-1.6 130.89-9.75 115.29-9.75 112.64-1.05 118.44-0.75Q118.44-0.7 118.39 0L118.39 0ZM130.54-10.75L122.74-34.05 115.59-10.75 130.54-10.75ZM144.99-33.95L142.34-34.25 142.39-35 149.24-35 168.69-1.4 168.44-33.25Q168.24-33.75 167.89-33.8L167.89-33.8 163.29-34.2Q163.24-34.5 163.24-34.95L163.24-34.95 172.74-35Q172.74-34.95 172.79-34.25L172.79-34.25 169.59-33.9 169.59 0 165.94 0 146.49-33.6 146.74-1.05 152.44-0.75Q152.44-0.7 152.39 0L152.39 0 142.34 0.05 142.39-0.65 144.99-1Q145.49-1.05 145.59-1.65L145.59-1.65 145.59-33.3Q145.49-33.9 144.99-33.95L144.99-33.95ZM176.49-17.4L176.49-17.4Q176.49-25.65 180.71-30.55 184.94-35.45 191.24-35.45L191.24-35.45Q205.99-35.45 205.99-17.4L205.99-17.4Q205.99-9.1 201.79-4.33 197.59 0.45 191.24 0.45L191.24 0.45Q176.49 0.45 176.49-17.4ZM179.89-17.5L179.89-17.5Q179.89-0.55 191.24-0.55L191.24-0.55Q196.14-0.55 199.36-5.05 202.59-9.55 202.59-17.5L202.59-17.5Q202.59-34.45 191.24-34.45L191.24-34.45Q186.39-34.45 183.14-29.9 179.89-25.35 179.89-17.5ZM219.53 0L209.48 0.05 209.53-0.65 212.13-1Q212.63-1.05 212.73-1.65L212.73-1.65 212.78-1.65 212.78-33.25 212.73-33.25Q212.63-33.9 212.13-33.95L212.13-33.95 209.53-34.2 209.48-34.95 219.53-35Q219.53-34.95 219.58-34.25L219.58-34.25 216.18-33.95 216.18-0.95 219.58-0.75Q219.58-0.7 219.53 0L219.53 0ZM226.13-33.95L223.48-34.25 223.53-35 235.68-35Q240.83-35 243.63-32.75 246.43-30.5 246.43-26.05L246.43-26.05Q246.43-23.15 244.21-20 241.98-16.85 240.03-15.95L240.03-15.95 249.28-0.9 251.73-0.75Q251.73-0.7 251.68 0L251.68 0 246.23 0.05 236.73-15.35 230.08-15.35 230.08-0.95 233.58-0.75Q233.58-0.7 233.53 0L233.53 0 223.48 0.05 223.53-0.65 226.13-1Q226.48-1.05 226.68-1.45L226.68-1.45 226.68-33.45Q226.53-33.9 226.13-33.95L226.13-33.95ZM235.43-34.25L235.43-34.25 230.08-34.25 230.08-16.1 238.63-16.1Q241.23-19.05 242.13-21.33 243.03-23.6 243.03-25.75L243.03-25.75Q243.03-29.95 241.08-32.1 239.13-34.25 235.43-34.25Z" opacity="1" transform="matrix(1,0,0,1,0,0)" fill="#000000" class="undefined-text-0" data-fill-palette-color="primary" id="text-0"></path></svg></g></svg></g></svg></g></svg></g><g transform="matrix(1,0,0,1,130.37976245649585,0)"><svg viewBox="0 0 134.76047508700827 134.76047508700827" height="134.76047508700827" width="134.76047508700827"><g><svg></svg></g><g id="icon-0"><svg viewBox="0 0 134.76047508700827 134.76047508700827" height="134.76047508700827" width="134.76047508700827"><g><path d="M0 67.38c0-37.213 30.167-67.38 67.38-67.38 37.213 0 67.38 30.167 67.38 67.38 0 37.213-30.167 67.38-67.38 67.38-37.213 0-67.38-30.167-67.38-67.38zM67.38 129.623c34.376 0 62.243-27.867 62.243-62.243 0-34.376-27.867-62.243-62.243-62.243-34.376 0-62.243 27.867-62.243 62.243 0 34.376 27.867 62.243 62.243 62.243z" data-fill-palette-color="accent" fill="#000000" stroke="transparent"></path><ellipse rx="66.70643516806909" ry="66.70643516806909" cx="67.38023754350414" cy="67.38023754350414" fill="#000000" stroke="transparent" stroke-width="0" fill-opacity="1" data-fill-palette-color="accent"></ellipse></g><g transform="matrix(1,0,0,1,32.12260356195141,32.00985488333232)"><svg viewBox="0 0 70.51526796310546 70.74076532034363" height="70.74076532034363" width="70.51526796310546"><g><svg xmlns="http://www.w3.org/2000/svg" xmlns:xlink="http://www.w3.org/1999/xlink" version="1.1" x="0" y="0" viewBox="7.157190322875977 3.9860024452209473 89.67459869384766 89.96136474609375" enable-background="new 0 0 100 100" xml:space="preserve" height="70.74076532034363" width="70.51526796310546" class="icon-x-0" data-fill-palette-color="quaternary" id="x-0"><g fill="#f9f9f9" data-fill-palette-color="quaternary"><g fill="#f9f9f9" data-fill-palette-color="quaternary"><path d="M13.94 7.583c0 0-5.963-3.665-6.233 3.014-0.267 6.679 10.747 20.552 21.625 32.124 11.505 12.243 11.561 12.188 21.943 21.247l5.328 0.141c0 0 19.336 21.263 26.287 28.216 5.077 5.078 12.768-3.027 8.761-7.033L13.94 7.583z" fill="#f9f9f9" data-fill-palette-color="quaternary"></path><path d="M8.928 83.346c-5.346 5.346 2.518 14.812 8.934 8.399 6.414-6.415 23.93-23.93 23.93-23.93l-8.721-8.613C33.071 59.202 14.272 77.999 8.928 83.346z" fill="#f9f9f9" data-fill-palette-color="quaternary"></path><path d="M96.476 21.006c-0.773-1.869-2.612-3.122-4.577-3.122-1.284 0-2.491 0.528-3.49 1.528l-15.251 15.25c-2.038 2.039-4.656 2.168-6.37 0.458l-1.045-1.046c-2.396-2.394-0.65-5.404 0.604-6.661l14.919-14.919c1.597-1.594 2.088-3.659 1.317-5.523-0.74-1.785-2.521-2.985-4.434-2.985-0.963 0-2.41 0.299-3.833 1.72L58.315 21.706c-4.348 4.349-6.082 11.852-0.739 17.195 1.054 1.054 1.127 1.133 1.2 1.236 0.162 0.221 0.289 0.394 3.035 3.141 2.266 2.265 4.997 3.463 7.905 3.463 3.281 0 6.628-1.538 9.424-4.334l16.164-16.167C96.782 24.762 97.22 22.806 96.476 21.006z" fill="#f9f9f9" data-fill-palette-color="quaternary"></path></g></g></svg></g></svg></g></svg></g></svg></g><g></g></svg></g></svg><rect width="395.52" height="218.6254041523483" fill="none" stroke="none" visibility="hidden"></rect></g></svg></g></svg>